# xmcd
#
# Track frame offsets:
#	150
#	10500
#	25893
#	41693
#	54722
#	70661
#	83046
#	94663
#	108269
#	122730
#	132201
#	145083
#	159707
#	171300
#	181845
#	193426
#	204217
#	218836
#	232264
#	248392
#
# Disc length: 3466 seconds
#
# Revision: 0
# Processed by: cddbd v1.5.2PL0 Copyright (c) Steve Scherf et al.
# Submitted via: EasyCDDAExtractor 12.0.0.1
#
DISCID=100d8814
DTITLE=Jean Jacques Debout - Sous le soleil des guiguettes
DYEAR=2013
DGENRE=Musette
TTITLE0=Sous le soleil des guiguettes
TTITLE1=Ca c'est passé un dimanche
TTITLE2=Ah le petit vin blanc
TTITLE3=Le plus beau tango du monde
TTITLE4=Sur le chemin de ta maison
TTITLE5=Le dénicheur
TTITLE6=La java bleue
TTITLE7=La belote
TTITLE8=Rue de lappe
TTITLE9=Papa, maman, la bonne et moi
TTITLE10=Maître pierre
TTITLE11=Le petit bal perdu
TTITLE12=C'est mauvais garçon
TTITLE13=Le marchand de bonheur
TTITLE14=Si tu vas à Rio
TTITLE15=Bal, petit bal
TTITLE16=Les routiers
TTITLE17=Sous les ponts de Paris
TTITLE18=Quand on se promène au bord de l'eau
TTITLE19=C'est fini
EXTD=
EXTT0=
EXTT1=
EXTT2=
EXTT3=
EXTT4=
EXTT5=
EXTT6=
EXTT7=
EXTT8=
EXTT9=
EXTT10=
EXTT11=
EXTT12=
EXTT13=
EXTT14=
EXTT15=
EXTT16=
EXTT17=
EXTT18=
EXTT19=
PLAYORDER=
